<?xml version="1.0" standalone="no"?>
<!DOCTYPE svg PUBLIC "-//W3C//DTD SVG 20010904//EN"
 "http://www.w3.org/TR/2001/REC-SVG-20010904/DTD/svg10.dtd">
<svg version="1.0" xmlns="http://www.w3.org/2000/svg"
 width="300.000000pt" height="300.000000pt" viewBox="0 0 300.000000 300.000000"
 preserveAspectRatio="xMidYMid meet">
<metadata>
Created by potrace 1.14, written by Peter Selinger 2001-2017
</metadata>
<g transform="translate(0.000000,300.000000) scale(0.100000,-0.100000)"
fill="#000000" stroke="none">
<path d="M1538 2993 c7 -3 16 -2 19 1 4 3 -2 6 -13 5 -11 0 -14 -3 -6 -6z"/>
<path d="M2480 2586 c0 -2 8 -10 18 -17 15 -13 16 -12 3 4 -13 16 -21 21 -21
13z"/>
<path d="M821 2555 c-77 -22 -145 -62 -192 -112 -32 -35 -40 -50 -37 -76 4
-44 29 -45 103 -6 175 93 170 91 257 96 l83 5 73 -47 c72 -47 152 -71 152 -46
0 44 -78 125 -160 167 -68 34 -193 43 -279 19z"/>
<path d="M2010 2390 c-138 -14 -235 -53 -247 -98 -10 -41 6 -45 119 -31 56 7
195 14 308 15 113 1 208 2 213 3 16 2 6 31 -19 50 -67 53 -218 78 -374 61z"/>
<path d="M1015 2251 c-41 -25 -61 -49 -84 -101 -57 -130 -21 -282 72 -305 96
-24 197 101 197 245 0 142 -90 220 -185 161z"/>
<path d="M1896 2165 c-20 -7 -47 -21 -58 -32 -70 -63 -100 -228 -56 -313 13
-25 37 -53 56 -64 29 -16 39 -17 72 -7 85 25 143 122 144 241 1 62 -3 82 -23
116 -34 60 -77 79 -135 59z"/>
<path d="M1185 1271 c-71 -5 -80 -8 -80 -26 0 -19 6 -20 150 -17 241 6 452
-25 572 -84 29 -14 57 -23 63 -19 55 34 -119 108 -315 134 -99 13 -296 19
-390 12z"/>
<path d="M440 883 c-30 -47 -59 -90 -64 -97 -9 -13 29 -76 45 -76 5 0 13 19
19 43 6 23 24 79 39 124 16 46 26 85 23 87 -4 2 -32 -35 -62 -81z"/>
<path d="M750 912 c0 -46 63 -81 158 -88 76 -5 75 -4 -25 25 -39 12 -85 33
-102 47 -17 14 -31 21 -31 16z"/>
<path d="M1490 909 c-103 -17 -276 -63 -251 -67 19 -3 166 29 306 68 39 10 14
10 -55 -1z"/>
<path d="M1779 814 c-19 -23 -71 -47 -183 -85 -114 -38 -113 -50 1 -19 110 30
156 53 182 89 23 32 23 43 0 15z"/>
<path d="M1330 661 c-34 -9 -36 -32 -5 -61 l25 -23 0 23 c0 13 10 34 22 47 20
22 20 23 2 22 -10 -1 -30 -4 -44 -8z"/>
<path d="M1316 459 c-38 -30 -32 -63 12 -67 31 -3 33 -2 22 17 -6 11 -8 32 -4
46 8 30 4 31 -30 4z"/>
<path d="M1298 249 c-28 -16 -23 -41 8 -37 32 4 56 48 26 48 -9 0 -25 -5 -34
-11z"/>
</g>
</svg>
